# xmcd CD database file
#
# Track frame offsets:
#	150
#	13568
#	26016
#	42691
#	52612
#	69845
#	81699
#	92523
#	109925
#	123466
#	143598
#	157874
#	170822
#	181778
#	196339
#	207819
#	224394
#	242587
#
# Disc length: 3413 seconds
#
# Revision: 0
# Processed by: cddbd v1.5.2PL0 Copyright (c) Steve Scherf et al.
# Submitted via: CDex 1.51
#
DISCID=f10d5312
DTITLE=Charlie Rich - Behind Closed Doors
DYEAR=1900
DGENRE=Country
TTITLE0=The Most Beautiful Girl In The World
TTITLE1=Behind Closed Doors
TTITLE2=Big Boss Man
TTITLE3=Mohair Sam
TTITLE4=My Elusive Dreams
TTITLE5=Rollin' With The Flow
TTITLE6=Lonely Weekends
TTITLE7=Life's Little Ups And Downs
TTITLE8=Sittin' And Thinkin'
TTITLE9=You Don't Know Me
TTITLE10=My Mountain Dew
TTITLE11=Take It On Home
TTITLE12=There Won't Be Anymore
TTITLE13=On My Knees
TTITLE14=Pass On By
TTITLE15=Who Will The Next Fool Be
TTITLE16=I Feel Like Going Home
TTITLE17=Good Time Charlie's The Blues
EXTD=
EXTT0=
EXTT1=
EXTT2=
EXTT3=
EXTT4=
EXTT5=
EXTT6=
EXTT7=
EXTT8=
EXTT9=
EXTT10=
EXTT11=
EXTT12=
EXTT13=
EXTT14=
EXTT15=
EXTT16=
EXTT17=
PLAYORDER=
